<?xml version="1.0" standalone="no"?>
<!DOCTYPE svg PUBLIC "-//W3C//DTD SVG 1.1//EN" "http://www.w3.org/Graphics/SVG/1.1/DTD/svg11.dtd" >
<svg xmlns="http://www.w3.org/2000/svg">
<metadata></metadata>
<defs>
<font id="BodoniXTRegular" horiz-adv-x="1024" >
<font-face units-per-em="2048" ascent="1638" descent="-410" />
<missing-glyph horiz-adv-x="512" />
<glyph horiz-adv-x="0" />
<glyph unicode="&#xd;" horiz-adv-x="569" d="M20 0h525v51h-150v1032l-368 -10v-51h147v-971h-154v-51z" />
<glyph horiz-adv-x="681" d="M41 1327q8 -174 94 -247.5t207 -73.5t207 73.5t94 247.5h-74q-29 -111 -85 -149.5t-142 -38.5t-143 39q-55 39 -84 149h-74z" />
<glyph horiz-adv-x="681" d="M231 1096q0 -43 32 -75t77 -32t77 32t32 75t-32 74.5t-77 31.5t-77 -32t-32 -74z" />
<glyph horiz-adv-x="681" d="M133 1120q0 -86 61.5 -147.5t147.5 -61.5t147.5 61.5t61.5 147.5t-61.5 147.5t-147.5 61.5t-147.5 -61.5t-61.5 -147.5zM217 1118q0 53 37 90t89 37t89 -37q35 -39 35 -90t-36 -87t-88 -36t-89 35t-37 88z" />
<glyph unicode="&#xa;" horiz-adv-x="681" d="M-47 1010h106l332 229q29 28 29 52t-24 50.5t-52 26.5q-29 0 -53 -17q-32 -23 -107 -100t-125.5 -130.5t-105.5 -110.5zM266 1010h107l334 229q28 28 28 53t-24.5 50.5t-53.5 25.5t-62.5 -24.5t-103 -97t-119.5 -126t-106 -110.5z" />
<glyph horiz-adv-x="681" d="M166 -158.5q0 -56.5 52 -87.5q95 -57 226 -12q51 15 76 33l-26 65q-57 -31 -103.5 -32t-75.5 20q-31 18 -30.5 55t22 71t55.5 54h-51q-59 -25 -102 -67.5t-43 -99z" />
<glyph horiz-adv-x="681" d="M16 1327l256 -346h140l254 346h-88l-236 -213l-238 213h-88z" />
<glyph horiz-adv-x="342" d="M-344 0h106l920 1321h-107z" />
<glyph horiz-adv-x="1138" d="M35 0h483v51h-119v971h338v-971h-119v-51h484v51h-144v1032l-368 -10h-191v45q0 27 -2 50.5t-1 45t7.5 41t22.5 36t27.5 29.5t22.5 22q21 16 44.5 16t53.5 -1t63 -3q127 -8 127 -47q-2 -16 -25 -44t-22 -65q2 -94 107 -94t110 102q2 76 -74 137q-52 41 -232 53 q-44 3 -71 3q-199 0 -330 -150q-41 -44 -44 -73t-2 -50.5t-1 -52.5h-145v-51h143v-971h-143v-51z" />
<glyph horiz-adv-x="1138" d="M33 0h491v51h-125v971h336v-971h-114v-51h485v51h-150v1348q-94 -38 -168 -45q-41 30 -174 42q-34 3 -61 3q-94 0 -162.5 -34t-140.5 -116q-39 -43 -48 -68q-12 -35 -20 -108h-149v-51h145v-971h-145v-51zM399 1073v137q0 65 85 130q22 18 50.5 18t48 -1t39.5 -3 q55 -5 64 -13q27 -14 27 -45t-24 -57.5t-23 -60.5q0 -59 69 -74v-31h-336z" />
<glyph horiz-adv-x="1251" d="M35 1317h215v-651l-201 -166v-103l201 166v-512h-203v-51h1135l22 461h-63q-13 -410 -367 -410h-264v727l281 234v102l-281 -233v436h213v51h-688v-51z" />
<glyph horiz-adv-x="569" d="M23 0h524v51h-150v719l152 121v84l-152 -121v545q-97 -16 -157 -23q-79 -8 -211 -8v-51h147v-639l-153 -123v-84l153 123v-543h-153v-51z" />
<glyph horiz-adv-x="1251" d="M80 0h1075l16 440h-55q-59 -281 -160 -336q-102 -53 -247 -53h-332l790 1258v59h-987l-33 -369h64q47 213 148 265.5t249 52.5h269l-797 -1262v-55zM299 1884l256 -346h139l254 346h-88l-235 -213l-238 213h-88z" />
<glyph horiz-adv-x="909" d="M61 0h736v348h-58q-12 -158 -63 -227.5t-189 -69.5h-168l480 961v61h-209l186 254h-88l-235 -213l-238 213h-88l188 -254h-206v-317h53q20 135 82 202q37 43 112 60l27 -37h139l6 8l-467 -932v-57z" />
<glyph unicode=" "  horiz-adv-x="512" />
<glyph unicode="&#x09;" horiz-adv-x="512" />
<glyph unicode="&#xa0;" horiz-adv-x="512" />
<glyph unicode="!" horiz-adv-x="681" d="M205 1283q0 -50 51 -290t57 -555h54q9 333 58.5 563t49.5 280t-40 84t-96 34t-95 -33t-39 -83zM211 100q0 -53 38 -91t91 -38t91 38t38 91t-38 91.5t-91 37.5q-53 0 -91 -38t-38 -91z" />
<glyph unicode="&#x22;" horiz-adv-x="696" d="M127 1323l4 -154l29 -368q4 -47 43 -47t43 47l28 366l5 156q0 31 -23 53.5t-53 22.5q-31 0 -53.5 -22.5t-22.5 -53.5zM418 1323l4 -154l29 -368q4 -47 43 -47t43 47l28 366l4 156q0 31 -22.5 53.5t-52.5 22.5q-31 0 -53.5 -22.5t-22.5 -53.5z" />
<glyph unicode="#" d="M10 442h219l-67 -442h119l67 442h279l-68 -442h119l67 442h218v113h-199l41 274h213v113h-195l58 379h-119l-57 -379h-279l57 379h-118l-58 -379h-241v-113h223l-41 -274h-238v-113zM367 555l41 274h278l-41 -274h-278z" />
<glyph unicode="$" d="M86.5 276q-0.5 -115 112.5 -194q74 -51 178 -72v-205h49v199q10 -2 25 -2h30q51 0 86 6v-203h49v211q117 31 187 93q123 106 123 279t-97 259q-68 60 -213 115v489q63 -12 99 -30q74 -39 73.5 -76t-43.5 -55.5t-43 -73.5q0 -92 91 -92h8q98 0 98 110.5t-100 184.5 q-57 43 -183 65v166h-49v-160q-10 2 -27 2h-40q-47 0 -74 -6v164h-49v-174q-86 -29 -141 -80q-104 -96 -105 -248q0 -152 84 -237q51 -53 162 -101v-561q-76 16 -109 37q-70 45 -69.5 74t50.5 53.5t50 97.5q0 88 -88 88h-18q-106 -8 -106.5 -123zM209 1012.5 q0 107.5 88 177.5q31 27 80 45v-397q-33 10 -66 24q-102 43 -102 150.5zM426 43v549q23 -10 56 -18q53 -12 85 -21v-506q-35 -6 -69 -6h-47q-14 0 -25 2zM426 819v432q35 9 117 9q14 0 24 -3v-479zM616 57v480q80 -27 132 -60q98 -59 98 -174q0 -178 -230 -246z" />
<glyph unicode="%" horiz-adv-x="1933" d="M137 780q0 -106 64.5 -177t167.5 -71q180 0 315 160q133 162 133 377q0 27 -4 47q77 -27 197 -28t247 69l-790 -1218h104l924 1419h-92q-157 -215 -363 -215h-26q-172 0 -238 57q-16 20 -31 37q-70 70 -165 70q-143 0 -293 -174.5t-150 -352.5zM311 707q0 166 115 341 t190 177q45 -45 136 -88q14 -32 14 -93q0 -158 -115 -306t-229 -148q-51 0 -82 31q-29 33 -29 86zM1118 231q0 -106 64.5 -177t167.5 -70q180 0 315 159q133 162 133 379q0 96 -71 167t-166 71q-143 0 -293 -174t-150 -355zM1292 158q0 166 116 343t191 177q148 0 148 -171 t-115 -321q-115 -145 -229 -145q-55 0 -83 32t-28 85z" />
<glyph unicode="&#x26;" horiz-adv-x="1705" d="M127 336.5q0 -162.5 115 -270.5q117 -106 338 -107q150 0 294 70q82 39 148 92l84 -121h475v51h-205q-92 141 -174 256q63 79 119 189t68 299h192v51h-457v-51h203q-8 -160 -54 -260.5t-104 -180.5q-16 25 -34.5 49.5t-59.5 86t-108.5 155.5t-135.5 191q102 39 187 92 q145 90 145 212t-104 187q-104 61 -252 61.5t-253 -83.5t-105 -222q0 -107 78 -240q20 -34 38 -63q-207 -74 -322.5 -177.5t-115.5 -266zM365 476q0 103 55 163q53 53 172 102l397 -571l-80 -55q-109 -68 -204 -68q-143 0 -241.5 163t-98.5 266zM632.5 1186q0.5 78 49.5 117 t128 38.5t122 -48t43 -175.5t-74 -184q-35 -27 -102 -57q-20 27 -45 59.5t-54 73.5q-68 98 -67.5 176z" />
<glyph unicode="'" horiz-adv-x="409" d="M127 1323l4 -154l29 -368q4 -47 43 -47t43 47l28 366l5 156q0 31 -23 53.5t-53 22.5q-31 0 -53.5 -22.5t-22.5 -53.5z" />
<glyph unicode="(" horiz-adv-x="681" d="M100 459q0 -319 157 -580.5t329 -357.5v57q-188 131 -244.5 343t-56.5 541t56 537.5t245 341.5v58q-172 -96 -329 -358.5t-157 -581.5z" />
<glyph unicode=")" horiz-adv-x="681" d="M100 -422v-57q172 96 329 358.5t157 582t-157 580t-329 357.5v-58q186 -133 246 -344q55 -213 55 -540.5t-56 -536.5t-245 -342z" />
<glyph unicode="*" d="M139 729q0 -18 13 -39q20 -37 52 -37t53 13q23 13 89 84q47 55 152 118q-4 -131 -30 -199.5t-26 -103.5q0 -84 74 -84t74 84q0 37 -26 108t-29 195q100 -59 152 -119t83 -81q72 -38 104 14q17 29 17 57.5t-47 59.5q-35 18 -110 30t-179 72q106 59 181 71.5t115 37.5 t40 61q0 16 -16 47t-47.5 31t-52.5 -12t-41.5 -34t-47.5 -50q-47 -55 -151 -119q5 135 30 201.5t25 101.5q0 84 -74 84t-74 -84q0 -37 26 -108t30 -195q-100 59 -152.5 119.5t-83.5 81.5q-27 14 -58.5 14t-47.5 -31t-17 -47q0 -71 160 -98q74 -12 178 -72q-106 -59 -181 -71 q-157 -27 -157 -101z" />
<glyph unicode="+" d="M59 403h400v-395h110v395h398v111h-398v389h-110v-389h-400v-111z" />
<glyph unicode="," horiz-adv-x="681" d="M207 97.5q0 -58.5 34 -93.5t76 -35q78 0 101 54.5t41 54.5q35 0 35 -64q0 -167 -179 -303q-14 -12 -14 -21t9 -15.5t17.5 -6.5t24.5 8q203 146 203 346q0 99 -57.5 156.5t-134.5 57.5t-116.5 -40t-39.5 -98.5z" />
<glyph unicode="-" horiz-adv-x="681" d="M66 590h555v108h-555v-108z" />
<glyph unicode="." horiz-adv-x="399" d="M63 100q0 -53 38 -91t92 -38q53 0 91 38t38 91t-38 91.5t-91 37.5q-53 0 -91.5 -38t-38.5 -91z" />
<glyph unicode="/" horiz-adv-x="569" d="M4 -31h119l442 1430h-119z" />
<glyph unicode="0" d="M61.5 644q-0.5 -269 132 -473t309.5 -204t312 203q133 205 133 475t-134 473t-309 203t-310 -203q-133 -205 -133.5 -474zM311 393v502q0 172 47 275t146 104q98 0 147 -103q47 -104 47 -276v-502q0 -176 -49 -276q-47 -102 -145 -102.5t-146 102.5q-47 104 -47 276z" />
<glyph unicode="1" d="M170 1247h176q51 0 66 -16q14 -18 14 -74v-1106h-244v-51h703v51h-238v1270l-203 -16q-92 -6 -274 -7v-51z" />
<glyph unicode="2" d="M59 0h809l13 379h-47q0 -113 -21.5 -153t-81.5 -40h-532l456 404q76 68 154 158t78 235t-111 244q-113 94 -279.5 94t-280.5 -95t-114 -237q0 -63 34 -117.5t108 -56.5q117 -4 127 105v16q0 92 -107 100l-69 -12q-27 0 -29 31q0 78 74 136t170 58t166 -85t69.5 -237.5 t-67.5 -258.5q-82 -125 -172 -211l-347 -324v-133z" />
<glyph unicode="3" d="M78 203q-2 -96 98 -166t242 -70q203 0 346 106.5t143 260.5t-103 247t-333 113q205 51 291 135q84 84 84 204t-111 204q-113 84 -259 84t-240 -67t-93 -154q4 -121 107 -121h8q92 0 102 92q0 53 -43 88q-43 31 -43 47t47.5 43t104.5 27q190 0 190 -236q0 -143 -63 -229 t-176 -90l-111 -4q-35 0 -43 -27q-2 -4 -2 -13q0 -15 43 -15h64q174 0 255 -81t81 -239.5t-69 -242t-189 -83.5q-76 0 -132 25q-55 20 -55 57q0 12 46 45t50 93q-6 106 -104 106h-12q-115 0 -121 -139z" />
<glyph unicode="4" d="M18 348h523v-297h-154v-51h528v51h-153v297h147v-153h54v362h-54v-151h-147v915h-148l-596 -915v-58zM90 406l451 692v-692h-451z" />
<glyph unicode="5" d="M100 211q-8 -111 85 -177t245 -67q225 0 357.5 110.5t132.5 300t-125 297.5t-320 107q-144 0 -235 -32l16 378h274q158 0 229 49.5t70 200.5h-45q0 -57 -69 -57h-508l-29 -631q0 -18 10 -18t33 6q74 45 178 45q141 0 212 -89t71 -261q0 -363 -272 -363q-70 0 -125 23 q-53 18 -54 55q0 18 48 47q51 27 51 78q-2 125 -105 125h-8q-111 0 -117 -127z" />
<glyph unicode="6" d="M76 532q0 -264 135 -413q133 -152 310 -152t309.5 125t132.5 301t-108.5 302t-270.5 126q-137 0 -252 -100q39 211 119 323q133 184 426 242v45q-309 -12 -555.5 -241.5t-245.5 -557.5zM319 520q0 66 5 119q97 131 227 131q88 0 129 -84q37 -84 37 -272.5t-35 -298 t-150 -109.5q-139 0 -176 104.5t-37 409.5z" />
<glyph unicode="7" d="M94 936h56q41 152 61.5 172.5t69.5 19.5h514l-377 -860q-15 -34 -24 -69q-15 -58 -15 -74q0 -154 137 -154q131 0 131 154q0 39 -26.5 112t-26.5 164q2 156 117 406q73 160 227 487v27h-729z" />
<glyph unicode="8" d="M68 310.5q0 -152.5 121.5 -248t313 -95.5t320.5 98.5t129 237.5q0 302 -372 377q337 93 335 317q0 145 -113.5 234.5t-294.5 89.5t-292 -85t-111 -237q0 -102 62 -178q57 -76 268 -141q-158 -37 -262 -127t-104 -242.5zM307 322q0 160 49 244.5t157 84.5t153 -78.5 t45 -239.5t-43 -240t-157 -79t-159 74t-45 234zM342 997.5q0 147.5 37 215t135 67.5t131 -66.5t33 -214t-39 -217.5q-41 -68 -136 -67.5t-128 68t-33 215z" />
<glyph unicode="9" d="M66 894q0 -177 110.5 -302t267.5 -125q90 0 153.5 34t96.5 66q-37 -211 -116 -321q-129 -180 -426 -240v-45q317 16 558.5 243.5t241.5 553.5q0 262 -133 412.5t-311 150.5t-310 -125t-132 -302zM311 873.5q0 189.5 35 299.5t150 109q141 0 178 -104q35 -109 35 -410 q0 -77 -4 -119q-97 -131 -226 -131q-90 0 -129 83t-39 272.5z" />
<glyph unicode=":" horiz-adv-x="681" d="M211 100q0 -53 38 -91t91 -38t91 38t38 91t-38 91.5t-91 37.5q-53 0 -91 -38t-38 -91zM211 678q0 -53 38 -91t91 -38t91 38t38 91t-38 91t-91 38t-91 -38t-38 -91z" />
<glyph unicode=";" horiz-adv-x="681" d="M213 97.5q0 -58.5 34 -93.5t77 -35q78 0 100.5 54.5t40.5 54.5q35 0 35 -64q0 -168 -178 -303q-26 -22 -5 -37q8 -6 16.5 -6t24.5 8q203 146 203 346q0 99 -57.5 156.5t-134.5 57.5t-116.5 -40t-39.5 -98.5zM254 678q0 -53 38 -91t91 -38t91 38t38 91t-38 91t-91 38 t-91 -38t-38 -91z" />
<glyph unicode="&#x3c;" d="M29 403l964 -444v115l-837 381l837 381v114l-964 -444v-103z" />
<glyph unicode="=" d="M61 264h908v111h-908v-111zM61 535h908v110h-908v-110z" />
<glyph unicode="&#x3e;" d="M29 -41l964 444v103l-964 444v-114l837 -381l-837 -381v-115z" />
<glyph unicode="?" horiz-adv-x="909" d="M121 1143q0 -111 106 -113q104 -4 105 98q0 61 -53.5 84t-53.5 39q0 31 73 67t154.5 36t146 -55.5t65 -139.5t-89.5 -153q-186 -146 -232 -258q-23 -61 -23 -123l23 -193h51v55q0 78 41 117t121.5 93.5t158 144.5t77.5 217t-92.5 233t-248 106.5t-242.5 -79.5t-87 -168 v-8zM233 100q0 -53 38 -91t91 -38t91.5 38t38.5 91t-38 91.5t-92 37.5q-53 0 -91 -38t-38 -91z" />
<glyph unicode="@" horiz-adv-x="923" d="M-4 915.5q0 -188.5 131 -329.5t340 -142q137 0 248 88t147 179h-55q-41 -82 -138 -147t-214 -64q-154 0 -278 117.5t-124 293.5t120 299t280 123t263 -98t103 -230t-79 -227.5t-152 -95.5q-25 0 -31 12l-2 13q0 12 6 34l141 426h-104l-14 -49q-14 39 -54 58 q-41 18 -75 18q-123 0 -205 -121t-82 -231.5t44 -156.5t118.5 -46t136.5 68q27 -70 122 -70t190 108.5t95 259t-117.5 267.5t-304.5 117t-323 -142q-133 -143 -133 -331.5zM264 748q0 135 70 273t155 138q25 0 48 -29q20 -30 20 -59t-64 -211t-149 -182q-31 0 -55.5 17 t-24.5 53z" />
<glyph unicode="A" horiz-adv-x="1366" d="M6 0h434v51h-209l127 363h445l121 -363h-211v-51h647v51h-162l-467 1348h-72l-489 -1348h-164v-51zM381 465l207 571l190 -571h-397z" />
<glyph unicode="B" horiz-adv-x="1366" d="M33 0h725q236 0 367.5 95.5t131.5 269.5q0 137 -120.5 230t-327.5 116q193 29 297 115.5t104 215.5q0 326 -495 326h-682v-51h203v-1266h-203v-51zM496 51v631h194q275 0 275 -315q0 -150 -52 -232q-49 -84 -147 -84h-270zM496 733v584h206q121 0 175.5 -67t54.5 -208 q0 -309 -242 -309h-194z" />
<glyph unicode="C" horiz-adv-x="1366" d="M106 682q0 -289 193 -500q190 -213 442 -213q205 0 349 115l84 -96h45v418h-60q-59 -225 -166 -306q-109 -80 -229 -80q-356 0 -356 478v372q0 227 84 352.5t260 125.5q121 0 233.5 -75t155.5 -290h59v395h-47l-80 -86q-127 107 -313 107q-268 0 -463 -213 q-191 -213 -191 -504z" />
<glyph unicode="D" horiz-adv-x="1478" d="M53 0h596q377 0 552 198.5t175 490.5t-185 486q-184 193 -514 193h-3h-621v-51h203v-1266h-203v-51zM516 51v1266h92q307 0 400 -121q88 -123 88 -477t-89 -511t-352 -157h-139z" />
<glyph unicode="E" horiz-adv-x="1366" d="M72 0h1163l18 440h-59q-31 -197 -108.5 -293t-276.5 -96h-274v627h55q156 0 206 -81t50 -189h57v571h-57q0 -100 -50 -175t-206 -75h-55v588h235q170 0 256 -60.5t131 -257.5h57l-14 369h-1128v-51h202v-1266h-202v-51z" />
<glyph unicode="F" horiz-adv-x="1251" d="M51 0h666v51h-203v627h55q158 0 208 -81t50 -189h58v571h-58q0 -100 -50 -175t-208 -75h-55v588h242q172 0 257 -72t130 -295h57l-14 418h-1135v-51h203v-1266h-203v-51z" />
<glyph unicode="G" horiz-adv-x="1478" d="M106 672q0 -301 189 -502q184 -201 469 -201q223 0 368.5 124t153.5 353h144v52h-642v-52h207v-167q0 -143 -67.5 -200.5t-175.5 -58.5q-201 0 -272.5 133.5t-71.5 419.5v279q0 248 83 372t277 124q115 0 222 -78t167 -287h60v395h-48l-84 -86q-131 107 -331 107 q-266 0 -457 -213t-191 -514z" />
<glyph unicode="H" horiz-adv-x="1593" d="M57 0h666v51h-203v627h551v-627h-203v-51h666v51h-203v1266h203v51h-666v-51h203v-590h-551v590h203v51h-666v-51h203v-1266h-203v-51z" />
<glyph unicode="I" horiz-adv-x="796" d="M63 0h668v51h-203v1266h203v51h-668v-51h203v-1266h-203v-51z" />
<glyph unicode="J" d="M45 27v-8q0 -79 77 -137q81 -60 195 -60q186 0 301 120.5t115 313.5v1061h201v51h-678v-51h217v-1282q0 -78 -36 -120t-93 -42t-86 14q-31 12 -31 29.5t30 59.5t30 71q-8 113 -115 113h-8q-115 0 -119 -133z" />
<glyph unicode="K" horiz-adv-x="1478" d="M47 0h666v51h-203v1266h203v51h-666v-51h203v-1266h-203v-51zM532 709l529 -658h-213v-51h635v51h-92l-654 797l447 469h200v51h-514v-51h234z" />
<glyph unicode="L" horiz-adv-x="1251" d="M47 0h1135l22 461h-63q-13 -410 -367 -410h-264v1266h213v51h-676v-51h203v-1266h-203v-51z" />
<glyph unicode="M" horiz-adv-x="1705" d="M37 0h469v51h-203v1252l414 -1303h69l418 1303v-1252h-203v-51h666v51h-203v1266h203v51h-518l-297 -938l-287 938h-528v-51h203v-1266h-203v-51z" />
<glyph unicode="N" horiz-adv-x="1478" d="M39 0h467v51h-201v1227l869 -1305h61v1344h203v51h-465v-51h196v-844l-606 895h-524v-51h201v-1266h-201v-51z" />
<glyph unicode="O" horiz-adv-x="1478" d="M100 682q0 -287 192 -500t444.5 -213t446 213t193.5 502t-192 502q-195 213 -448 213t-444 -214q-192 -214 -192 -503zM401 440v488q0 420 337 420t337 -420v-488q0 -418 -338 -420q-336 0 -336 420z" />
<glyph unicode="P" horiz-adv-x="1366" d="M86 0h682v51h-219v570h231q246 0 394 98q145 98 145 278q0 371 -549 371h-684v-51h203v-1266h-203v-51zM549 672v645h252q123 0 176 -77.5t53 -240.5t-56 -245t-181 -82h-244z" />
<glyph unicode="Q" horiz-adv-x="1478" d="M100 684q0 -287 191 -502q127 -143 305 -194q2 -229 107 -308t145 -79q0 -2 52 -15q85 -23 199 -23q18 0 36 1l145 4v49h-41q-195 0 -246 45t-49 51q-4 0 -33 59q-28 58 -28 138v6q0 32 4 74q172 53 297 192q192 213 192 502t-192 502q-195 213 -448 213t-444 -214 t-192 -501zM401 440v488q0 420 337 420t337 -420v-488q0 -418 -338 -420q-336 0 -336 420z" />
<glyph unicode="R" horiz-adv-x="1478" d="M92 0h666v51h-203v654h107q220 0 258 -238q12 -76 18 -174l6 -88q31 -145 150 -201q63 -29 147 -29t186 25v47q-53 -6 -93 -6q-88 0 -107 76l-2 100q-4 196 -70 324.5t-321 181.5q430 65 432 334q0 166 -115 237q-111 74 -338 74h-721v-51h203v-1266h-203v-51zM555 756 v561h201q127 0 178 -66.5t51 -213t-61.5 -214t-194.5 -67.5h-174z" />
<glyph unicode="S" horiz-adv-x="1138" d="M141 -12h35l98 86q122 -105 301.5 -105t299.5 126t120 323.5t-91 300t-331 164.5q-152 39 -231 78q-78 35 -78 141t76 176t180 70q145 0 240 -101q94 -104 112 -256h66v387h-39l-78 -80q-125 101 -291 101t-272 -109t-106 -273.5t86 -263.5t262 -146.5t279 -109.5 q104 -62 104 -188q0 -124 -89 -206q-89 -83 -232 -83t-237 111t-124 264h-60v-407z" />
<glyph unicode="T" horiz-adv-x="1366" d="M74 930h65q35 238 127 313q94 74 232 74h57v-1266h-215v-51h690v51h-215v1266h53q137 0 230.5 -74t128.5 -313h65l-22 438h-1174z" />
<glyph unicode="U" horiz-adv-x="1478" d="M31 1317h202v-842q0 -274 119 -390t386 -116t386 112t119 365v871h203v51h-469v-51h203v-905q0 -182 -91.5 -279.5t-263.5 -97.5t-252 84t-79 264v934h202v51h-665v-51z" />
<glyph unicode="V" horiz-adv-x="1366" d="M0 1317h170l487 -1348h62l475 1348h170v51h-444v-51h213l-347 -959l-348 959h211v51h-649v-51z" />
<glyph unicode="W" horiz-adv-x="1933" d="M31 1317h155l492 -1348h65l228 629l231 -629h64l481 1348h149v51h-376v-51h166l-363 -989l-197 534l162 455h135v51h-1392v-51zM444 1317h267l229 -629l-127 -362zM950 1317h283l-135 -352z" />
<glyph unicode="X" horiz-adv-x="1478" d="M35 0h506v51h-242l363 516l321 -516h-211v-51h668v51h-154l-473 744l361 522h192v51h-496v-51h232l-322 -469l-286 469h202v51h-653v-51h158l422 -696l-396 -570h-192v-51z" />
<glyph unicode="Y" horiz-adv-x="1366" d="M2 1317h150l430 -696v-570h-217v-51h704v51h-227v615l356 651h168v51h-442v-51h213l-330 -588l-348 588h209v51h-666v-51z" />
<glyph unicode="Z" horiz-adv-x="1251" d="M80 0h1075l16 440h-55q-59 -281 -160 -336q-102 -53 -247 -53h-332l790 1258v59h-987l-33 -369h64q47 213 148 265.5t249 52.5h269l-797 -1262v-55z" />
<glyph unicode="[" horiz-adv-x="796" d="M147 -479h504v76l-338 -5v1731h338v76h-504v-1878z" />
<glyph unicode="\" horiz-adv-x="1064" d="M252 1399l455 -1430h118l-454 1430h-119z" />
<glyph unicode="]" horiz-adv-x="796" d="M147 -403v-76h504v1878h-504v-76l338 4v-1730h-338z" />
<glyph unicode="^" d="M23 354h112l375 836l375 -836h112l-438 967h-98z" />
<glyph unicode="_" d="M0 -395v-119h1024v119h-1024z" />
<glyph unicode="`" horiz-adv-x="681" d="M106 1287.5q0 -28.5 50 -60.5l317 -217h102q-41 41 -79.5 82t-78.5 82q-105 108 -148.5 150t-77.5 42t-59.5 -25t-25.5 -53.5z" />
<glyph unicode="a" d="M102 244.5q0 -128.5 55.5 -203t155.5 -74.5q168 0 301 146q6 -57 45.5 -100.5t112 -43.5t115.5 32t82 77l-25 28q-45 -45 -70 -46t-38 12q-12 8 -13 28v734q0 112 -96 182q-95 69 -238 70h-3q-144 0 -236 -63q-90 -61 -90 -149q0 -94 99 -94q97 0 106 88q0 43 -17.5 77 t-17.5 38q0 18 45 39.5t97 21.5t99 -36q43 -37 43 -90v-334h-53q-248 0 -373 -125q-86 -86 -86 -214.5zM317 293q0 100 39 158q53 81 170 81q32 0 88 -43v-127q0 -115 -46 -203.5t-118 -88.5q-133 0 -133 223z" />
<glyph unicode="b" horiz-adv-x="1138" d="M33 0l233 -2q106 -4 135 -18v131q102 -142 257 -142t270 164q112 166 112 391q0 226 -118 394t-269 168l-1 -1q-150 0 -251 -149v463q-97 -16 -157 -23q-79 -8 -211 -8v-51h147v-1266h-147v-51zM401 387v256q0 164 72 283q71 118 176 118h2q66 0 109 -92q39 -102 39 -231 v-387q0 -147 -40 -235.5t-112 -88.5q-98 0 -172 107.5t-74 269.5z" />
<glyph unicode="c" horiz-adv-x="909" d="M80 528.5q0 -235.5 112.5 -397.5t278.5 -162q135 0 231 97t129 296l-51 -2q-12 -111 -86 -229q-72 -121 -183 -121t-151.5 94t-40.5 283v277q0 174 42 277t131 103q51 0 100 -16t55 -49q0 -23 -33 -48.5t-32 -74.5q12 -96 115 -96t114 110q0 104 -96.5 159.5t-208.5 55.5 q-186 0 -306 -160.5t-120 -396z" />
<glyph unicode="d" horiz-adv-x="1138" d="M84 522q0 -232 104 -392.5t275 -160.5t262 172v-157q69 12 158 12q57 4 109 4h102v51h-150v1348q-97 -16 -157 -23q-79 -8 -212 -8v-51h148v-404q-74 174 -236 174q-1 -1 -3 -1q-164 -2 -282 -167t-118 -397zM330 340v375q0 147 36 238t107 91q106 0 178 -126 q74 -123 74 -318v-192q0 -156 -78 -277q-74 -121 -170 -121q-72 0 -110 92q-37 92 -37 238z" />
<glyph unicode="e" horiz-adv-x="909" d="M66 519q0 -226 118.5 -388t263 -162t249 102.5t147.5 315.5h-51q-19 -115 -99 -246t-205 -131q-100 0 -140 99.5t-40 277.5v197h510q14 0 15 14q4 16 4 39q0 186 -105.5 317t-265.5 131t-280.5 -170t-120.5 -396zM309 635v37q0 182 31 278q27 94 123 94q73 0 111 -74 q36 -70 36 -182v-12l-4 -141h-297z" />
<glyph unicode="f" horiz-adv-x="681" d="M25 1022h163v-971h-159v-51h557v51h-176v971h194v51h-194v45q0 49 -8 92q-3 11 -3 21q0 31 19 57q45 70 96 70q63 0 88 -10q17 -10 17 -23q0 -17 -29 -41q-29 -23 -29 -59q0 -94 100.5 -94t106.5 100q2 68 -53 118t-154 50q-88 0 -157 -28q-156 -62 -203 -169 q-15 -32 -15 -59v-5q2 -30 2 -65h-163v-51z" />
<glyph unicode="g" horiz-adv-x="909" d="M74 175.5q0 -216.5 151 -232.5q-72 -41 -111.5 -81t-39.5 -127t97 -150.5t268 -63.5t302 106q129 106 129 287q0 102 -48 153.5t-128 51.5q-287 4 -421 7t-134 101q0 181 301 181q133 0 219 94q82 98 82 230.5t-59 215.5q6 11 24.5 33.5t36.5 22.5t35 -35 q14 -33 50.5 -33t56.5 21.5t20 57.5t-27 57q-29 22 -62 22q-35 0 -75 -23q-29 -18 -86 -90l-6 6q-90 98 -221 98t-219 -96t-88 -243q0 -163 121 -266q14 -13 30 -23q-198 -65 -198 -281.5zM207 -232.5q0 75.5 20 117.5q14 35 84 52q203 -11 345.5 -11t142.5 -80 q0 -129 -117 -202q-119 -72 -243 -72t-178 60t-54 135.5zM319 716q0 201 15 263q12 65 99 65h3q90 0 101 -65q8 -66 8 -194q0 -197 -10 -279q-8 -63 -101 -64h-1q-91 0 -103 68q-11 91 -11 206z" />
<glyph unicode="h" horiz-adv-x="1138" d="M43 1317h147v-1266h-139v-51h484v51h-123v475q0 233 70.5 359.5t156.5 126.5q68 0 89 -83t22 -247v-631h-129v-51h485v51h-135v623q0 201 -59.5 306t-196.5 105q-86 0 -168 -44t-135 -152v510q-95 -16 -156 -23q-81 -8 -213 -8v-51z" />
<glyph unicode="i" horiz-adv-x="569" d="M20 0h525v51h-150v1032l-368 -10v-51h147v-971h-154v-51zM168 1289q0 -48 35 -83t82 -35t81.5 35t34.5 83t-34.5 83t-81.5 35t-82 -35t-35 -83z" />
<glyph unicode="j" horiz-adv-x="681" d="M-37 -324q0 -55 46 -105t126 -50q172 0 264.5 141.5t92.5 405.5v1015l-369 -10v-51h147v-1210q0 -236 -88 -238q-51 0 -51 35q0 14 12 42t13 48q-4 84 -86 84h-13q-94 0 -94 -107zM264 1310q0 -48 35 -83t82 -35t82 35t35 83t-35 82.5t-82 34.5t-82 -34.5t-35 -82.5z" />
<glyph unicode="k" horiz-adv-x="1138" d="M45 1317h148v-1266h-132v-51h480v51h-127v1348q-95 -16 -156 -23q-81 -8 -213 -8v-51zM440 584l312 -533h-117v-51h455v51h-80l-383 625l225 346h180v51h-440v-51h170z" />
<glyph unicode="l" horiz-adv-x="569" d="M23 0h524v51h-150v1348q-97 -16 -157 -23q-79 -8 -211 -8v-51h147v-1266h-153v-51z" />
<glyph unicode="m" horiz-adv-x="1593" d="M37 0h475v51h-115v567q0 176 67.5 285t113.5 109h16q63 0 82 -58q18 -59 18 -176v-727h-104v-51h438v51h-113v557q0 203 64 303q61 100 135 101h16q55 0 68 -58q12 -59 12 -176v-727h-106v-51h463v51h-135v623q0 211 -51.5 311t-194.5 100q-96 0 -165 -52t-103 -118 q-27 76 -82 123t-150 47q-204 0 -293 -196v194l-356 -10v-51h139v-971h-139v-51z" />
<glyph unicode="n" horiz-adv-x="1138" d="M47 0h485v51h-129v475q0 233 71 359.5t159 126.5q70 0 92 -86q20 -82 20 -244v-631h-129v-51h476v51h-131v623q0 205 -58.5 308t-193.5 103q-88 0 -170 -44t-136 -152v194l-356 -10v-51h139v-971h-139v-51z" />
<glyph unicode="o" d="M80 527.5q0 -224.5 130 -391.5t301 -167t301 167t130 391q0 223 -130 391q-130 167 -300 168h-1q-171 0 -301 -167t-130 -391.5zM326 393v269q0 190 39 286q41 96 146 96t145 -95t40 -287v-269q0 -190 -39 -287q-41 -96 -147 -96t-145 99q-39 92 -39 284z" />
<glyph unicode="p" horiz-adv-x="1138" d="M35 1022h147v-1450h-145v-51h508v51h-142v549q74 -152 238 -152t282.5 164t118.5 394t-112 395q-113 164 -266 164v0q-154 -1 -265 -171v168l-364 -10v-51zM403 414v262q0 131 81 250t158 119q1 0 1 -1q78 0 118 -81.5t40 -219.5v-432q0 -129 -41 -217q-37 -84 -107 -84 q-111 0 -180 117q-70 113 -70 287z" />
<glyph unicode="q" horiz-adv-x="1138" d="M88 539q0 -229 119 -392q117 -166 276 -166l1 1q159 0 243 149v-547h-143v-51h512v51h-148v1426l150 6v63l-371 8v-200q-49 113 -116.5 162t-135.5 49q-162 0 -274.5 -165t-112.5 -394zM328 365v337q0 154 37 254t106 101q256 0 256 -529v-98q0 -170 -73 -289 q-72 -118 -175 -118h-2q-70 0 -108 98q-41 98 -41 244z" />
<glyph unicode="r" horiz-adv-x="909" d="M61 1022h136v-971h-121v-51h526v51h-184v412q0 215 67.5 380t147.5 165l12 -2q4 -4 4 -11l-8 -67q6 -90 107 -90h8h2q108 0 112 110q0 57 -42 97.5t-124 40.5q-169 -2 -290 -230v227l-353 -10v-51z" />
<glyph unicode="s" horiz-adv-x="796" d="M104 -6h33l60 61q101 -88 225.5 -88t198.5 90q71 90 71 249t-53 237q-49 71 -194.5 106t-191.5 75t-46 120t44 140t127 60t144 -69q59 -70 66 -144h53v263h-35l-33 -74q-83 65 -198 65t-189 -87q-74 -86 -74 -240q0 -157 85 -230q82 -70 196.5 -96.5t163.5 -66t49 -137 t-56 -157.5q-56 -61 -145 -61h-1q-88 0 -158 80q-68 80 -86 203h-56v-299z" />
<glyph unicode="t" horiz-adv-x="681" d="M53 1012h131v-877q0 -92 47 -129t167 -37t177 58q62 57 76 110l-41 21q-37 -109 -127 -109q-43 0 -61 21q-16 23 -16 69v873h192v61h-192v225l-222 -53v-172h-131v-61z" />
<glyph unicode="u" horiz-adv-x="1138" d="M45 1022h133v-725q0 -150 66 -240q61 -88 182 -88q188 0 307 199v-184q93 16 195 16h166v51h-142v1030l-374 -8v-51h153v-571q0 -170 -72 -293t-170 -123q-88 0 -90 198v848l-354 -8v-51z" />
<glyph unicode="v" d="M43 1022h104l330 -1053h55l330 1053h113v51h-316v-51h142l-217 -715l-205 715h129v51h-465v-51z" />
<glyph unicode="w" horiz-adv-x="1366" d="M10 1022h101l286 -1053h64l205 795l227 -795h65l265 1053h120v51h-323v-51h139l-168 -748l-217 799h-98v-29l-184 -784l-156 762h137v51h-463v-51z" />
<glyph unicode="x" d="M39 0h340v51h-141l208 395l191 -395h-111v-51h451v51h-86l-303 557l219 414h137v51h-338v-51h135l-188 -371l-176 371q18 6 56.5 3t53.5 -3v51h-448v-51h90l283 -535l-242 -436h-131v-51z" />
<glyph unicode="y" d="M39 1022h100l361 -967l-47 -186q-73 -163 -86.5 -185t-22.5 -22q-8 0 -14 8q-2 6 -11 15q-37 45 -86 45q-14 0 -34 -4q-74 -18 -74 -99q0 -51 38 -79q37 -27 72 -27h3q103 0 202 175q29 50 47 111l373 1215h115v51h-324v-51h148l-195 -647l-227 647h131v51h-469v-51z" />
<glyph unicode="z" horiz-adv-x="909" d="M61 0h736v348h-58q-12 -158 -63 -227.5t-189 -69.5h-168l480 961v61h-690v-317h53q20 135 79.5 200t172.5 66h131l-484 -965v-57z" />
<glyph unicode="{" horiz-adv-x="796" d="M115 457q100 -16 148 -63.5t48 -149.5v-473q0 -109 76 -179.5t289 -66.5q-72 14 -134 66t-63 176v393q0 150 -58 215.5t-177 83.5q121 23 178 87t57 214v393q0 123 63.5 175t133.5 71q-211 0 -288 -71t-77 -179v-473q0 -102 -48 -150.5t-148 -68.5z" />
<glyph unicode="|" horiz-adv-x="1146" d="M518 -512h113v2048h-113v-2048z" />
<glyph unicode="}" horiz-adv-x="796" d="M115 -479q211 0 287.5 70.5t76.5 179.5v473q0 102 46.5 149t148.5 70q-102 14 -150 63q-45 49 -45 150v473q0 109 -77 178.5t-287 67.5q70 -16 135 -68q61 -53 61 -174v-393q0 -150 56.5 -214t177.5 -87q-121 -18 -177 -85t-57 -214v-393q0 -123 -65.5 -176.5 t-130.5 -69.5z" />
<glyph unicode="~" d="M27 385l82 -55q35 55 80.5 99t107 44t201 -63.5t232.5 -63.5t161.5 62.5t109.5 132.5l-83 55q-23 -39 -75 -91t-112.5 -52t-201 63t-233.5 63.5t-162 -63t-107 -131.5z" />
<glyph unicode="&#xa2;" d="M131 527.5q0 -232.5 113 -394.5q53 -76 129 -121l-94 -309h77l86 281q35 -10 78 -11q133 0 228.5 95.5t130.5 298.5l-52 -2q-12 -109 -83.5 -230t-186.5 -121q-70 0 -98 29l221 723q6 -14 63 -14q104 0 115 110q0 104 -94 160q-2 2 -4 2l88 293h-78l-80 -262 q-61 23 -135 22q-184 0 -304 -158.5t-120 -391zM371 385v277q0 172 43 274q39 100 127 100q51 0 91 -15.5t42 -19.5l-268 -880q-35 92 -35 264z" />
<glyph unicode="&#xa3;" d="M33 108.5q0 -65.5 38 -107.5t100 -42q144 0 241 131q29 -23 61.5 -44t85 -54t165.5 -33q231 0 243 401l-47 7q0 -98 -64.5 -150.5t-173.5 -52.5q-141 0 -215 37q63 157 63 286.5t-18 174.5h242v55h-248q-14 80 -31.5 156.5t-17.5 156.5q0 129 58 187.5t140.5 58.5 t144.5 -35t62 -88q0 -29 -35 -29l-47 6q-47 0 -71 -75q-2 -10 -2 -27q0 -111 106 -110h8q127 4 127 153q0 119 -90 184.5t-205 65.5q-195 0 -302.5 -124t-106.5 -300q0 -75 7 -113.5t11 -66.5h-215v-55h225q0 -90 45.5 -211t44.5 -185q0 -23 -4 -43q-64 33 -145.5 33 t-130.5 -41t-49 -106.5zM82 102.5q0 44.5 37 69.5q39 23 74 23q85 0 155 -56q-27 -57 -74 -94t-90 -37t-73 25q-29 25 -29 69.5z" />
<glyph unicode="&#xa5;" d="M6 1270h100l324 -672v-63h-274v-52h274v-116h-274v-52h274v-264h-174v-51h569v51h-184v264h274v52h-274v116h274v52h-274v108l266 627h111v51h-311v-51h137l-240 -565l-254 565h150v51h-494v-51z" />
<glyph unicode="&#xa8;" horiz-adv-x="681" d="M23 1098q0 -43 31.5 -75t76.5 -32t77 32t32 75t-32 75t-77 31q-45 0 -77 -32t-31 -74zM438 1098q0 -43 32 -75t77 -32t76.5 32t31.5 75t-31.5 75t-76.5 31q-45 0 -77 -32t-32 -74z" />
<glyph unicode="&#xa9;" horiz-adv-x="1556" d="M72 684q0 -293 208 -501t499.5 -208t499.5 208t208 501t-208 501t-500 208t-499.5 -208t-207.5 -501zM143 684q0 262 186.5 448.5t449.5 186.5t449.5 -186.5t186.5 -448.5t-186.5 -448.5t-449.5 -186.5t-449.5 186.5t-186.5 448.5zM360 697q0 -173 126 -298t298 -125 q82 0 168 39t131 74v152h-36q-23 -98 -92 -166t-187.5 -68t-163.5 108t-45 296t39 286q37 102 165 102.5t192.5 -64.5t78.5 -154h37v161q-59 18 -135 56q-80 35 -152 34q-178 0 -301 -130t-123 -303z" />
<glyph unicode="&#xab;" d="M168 407q0 -7 14 -16q45 -39 86 -74.5t80 -70.5t77 -73l79 -79q8 -4 12 -4l8 2q4 4 4 11t-4 20q-51 107 -150 227q-28 33 -55 60q53 53 113 133q57 82 92 153q4 16 4 21q0 12 -14 12q-2 0 -10 -4l-80 -80q-39 -39 -78 -73.5t-79 -70.5t-85 -73q-14 -14 -14 -21zM494 407 q0 -7 14 -16q45 -39 86 -74.5t80 -70.5t76.5 -73t78.5 -79q8 -4 13 -4l8 2q4 4 4 11t-4 20q-51 107 -150 227q-28 33 -55 60q53 53 113 133q57 82 92 153q4 16 4 21q0 12 -14 12q-2 0 -11 -4q-41 -41 -79.5 -80t-77.5 -73.5t-79 -70.5t-85 -73q-14 -14 -14 -21z" />
<glyph unicode="&#xae;" horiz-adv-x="1556" d="M72 684q0 -293 208 -501t499.5 -208t499.5 208t208 501t-208 501t-500 208t-499.5 -208t-207.5 -501zM143 684q0 262 186.5 448.5t449.5 186.5t449.5 -186.5t186.5 -448.5t-186.5 -448.5t-449.5 -186.5t-449.5 186.5t-186.5 448.5zM371 313h434v29h-131v369h41 q162 0 195.5 -92.5t68.5 -305.5h248v27q-59 2 -80 18q-20 12 -27.5 83t-49.5 159t-214 119q152 20 216 66t64.5 123t-62 126t-214.5 49h-489v-28h133v-713h-133v-29zM674 745v306h160q118 0 118 -143q0 -79 -37 -121t-139 -42h-102z" />
<glyph unicode="&#xb4;" horiz-adv-x="681" d="M111 1010h102l317 217q48 32 48 59.5t-28 53.5t-58.5 26t-67.5 -36t-77 -76t-80 -80.5t-78.5 -81.5t-77.5 -82z" />
<glyph unicode="&#xb8;" horiz-adv-x="681" d="M129 -401q60 -39 174.5 -39t185.5 43q70 43 70 118t-47 116.5t-121 41.5h-18q-25 0 -49 -12l55 133h-76l-88 -203l33 -8l61 10q37 0 63 -25.5t25.5 -59.5t-35 -56.5t-92.5 -22.5t-116 29z" />
<glyph unicode="&#xbb;" d="M168 100q0 -7 9 -8.5t18 2.5q108 108 152 147.5t84 76t87 73.5q14 15 14 19t-14 18q-158 127 -220 191.5t-103 105.5q-8 4 -13 4q-14 0 -14 -16q0 -4 4 -17q52 -109 154 -227q28 -33 55 -59q-56 -56 -115 -135t-94 -152q-4 -16 -4 -23zM494 100q0 -7 9 -8.5t17 2.5 q100 100 148.5 143.5t88.5 80t87 73.5q14 15 14 19t-14 18q-155 125 -219 190.5t-105 106.5q-8 4 -12 4q-14 0 -14 -16q0 -4 4 -17q52 -109 154 -227q28 -33 55 -59q-56 -56 -115 -135t-94 -152q-4 -16 -4 -23z" />
<glyph unicode="&#x2c6;" horiz-adv-x="681" d="M16 981h88l238 213l238 -213h88l-256 346h-140z" />
<glyph unicode="&#x2dc;" horiz-adv-x="681" d="M-12 1014h69q12 51 45 75.5t74 24.5t131 -48t166 -48t135 59t86 168h-69q-16 -53 -47 -77t-73 -23.5t-131 48.5t-165 48t-135.5 -59.5t-85.5 -167.5z" />
<glyph unicode="&#x2013;" d="M0 358h1024v109h-1024v-109z" />
<glyph unicode="&#x2014;" horiz-adv-x="2048" d="M0 358h2048v109h-2048v-109z" />
<glyph unicode="&#x2018;" horiz-adv-x="681" d="M166 1071q0 -121 57.5 -178t129 -57t122.5 34q47 36 47 97q0 123 -100 131l-25 2q-78 6 -98 -60q-16 -47 -44 -47t-28 79q0 112 121 236q31 33 53.5 48.5t22.5 23.5t-9 16q-16 16 -38 -1q-88 -49 -149.5 -147.5t-61.5 -176.5z" />
<glyph unicode="&#x2019;" horiz-adv-x="681" d="M168 1268q0 -125 98 -133h21q80 0 98 59q12 47 42 47t30 -79q0 -112 -121 -236q-31 -33 -53.5 -49.5t-22.5 -23.5t9 -15t18.5 -6t19.5 8q88 49 149.5 147t61.5 176q0 121 -57.5 178.5t-129 57.5t-117.5 -34t-46 -97z" />
<glyph unicode="&#x201a;" horiz-adv-x="681" d="M168 104q0 -125 98 -133h21q80 0 95 53.5t45 53.5t30 -79q0 -112 -121 -237q-31 -32 -53.5 -48.5t-22.5 -23.5t9 -15.5t18.5 -6.5t19.5 8q88 49 149.5 147.5t61.5 176.5q0 121 -57.5 178.5t-129 57.5t-117.5 -34t-46 -98z" />
<glyph unicode="&#x201c;" d="M84 1071q0 -121 57.5 -178t129 -57t122.5 34q47 36 47 97q0 123 -100 131l-25 2q-78 6 -98 -60q-16 -47 -44 -47t-28 79q0 112 121 236q31 33 53.5 48.5t22.5 23.5t-9 16q-16 16 -38 -1q-88 -49 -149.5 -147.5t-61.5 -176.5zM596 1071q0 -121 57.5 -178t129 -57t122.5 34 q47 36 47 97q0 123 -100 131l-25 2q-78 6 -98 -60q-16 -47 -44 -47t-28 79q0 112 121 236q31 33 53.5 48.5t22.5 23.5t-9 16q-16 16 -38 -1q-88 -49 -149.5 -147.5t-61.5 -176.5z" />
<glyph unicode="&#x201d;" d="M90 1268q0 -125 98 -133h21q80 0 98 59q12 47 42 47t30 -79q0 -112 -121 -236q-31 -33 -53 -49.5t-22.5 -23.5t8.5 -15t18.5 -6t19.5 8q88 49 149.5 147t61.5 176q0 121 -57 178.5t-128.5 57.5t-118 -34t-46.5 -97zM602 1268q0 -125 98 -133h21q80 0 98 59q12 47 42 47 t30 -79q0 -112 -121 -236q-31 -33 -53 -49.5t-22.5 -23.5t8.5 -15t18.5 -6t19.5 8q88 49 149.5 147t61.5 176q0 121 -57 178.5t-128.5 57.5t-118 -34t-46.5 -97z" />
<glyph unicode="&#x201e;" d="M86 104q0 -125 98 -133h21q80 0 95 53.5t45 53.5t30 -79q0 -112 -121 -237q-31 -32 -53.5 -48.5t-22.5 -23.5t9 -15.5t18.5 -6.5t19.5 8q88 49 149.5 147.5t61.5 176.5q0 121 -57 178.5t-128.5 57.5t-118 -34t-46.5 -98zM592 104q0 -125 98 -133h21q80 0 95 53.5t45 53.5 t30 -79q0 -112 -121 -237q-31 -32 -53.5 -48.5t-22.5 -23.5t9 -15.5t18.5 -6.5t19.5 8q88 49 149.5 147.5t61.5 176.5q0 121 -57.5 178.5t-129 57.5t-117.5 -34t-46 -98z" />
<glyph unicode="&#x2020;" d="M113 928q0 -90 90 -90q23 0 117 36.5t169 36.5q0 -104 -12 -197t-74 -177q60 -189 72 -347q19 -250 19 -481h36q0 233 15.5 436t75.5 392q-59 84 -69 155q-12 93 -17 219q78 0 168 -37t116 -36q90 0 90 90t-90 94q-25 0 -116 -37t-168 -37q0 127 37.5 231.5t37.5 125.5 q-6 94 -98 94t-98 -94q0 -23 38 -127t37 -230q-76 0 -169 37t-117 37q-90 -4 -90 -94z" />
<glyph unicode="&#x2021;" d="M111 164q0 -90 90 -90q23 0 116.5 37t169.5 36q0 -158 -35.5 -235.5t-35.5 -106.5q2 -106 95 -106t93 106q0 33 -36 112t-36 230q78 0 170.5 -36.5t116.5 -36.5q90 0 90 90t-90 94q-25 0 -117 -37t-170 -37q0 82 12.5 151t63.5 136q-51 104 -63 213.5t-13 226.5 q78 0 170.5 -36.5t116.5 -36.5q90 0 90 90t-90 94q-25 0 -117 -37t-170 -37q0 152 37 236t37 121q0 94 -95 94t-97 -94q0 -35 37 -120t36 -237q-76 0 -169 37t-117 37q-90 -4 -90 -94t90 -90q23 0 116.5 36.5t169.5 36.5q0 -225 -24.5 -306t-50.5 -134q53 -72 61 -122 q14 -87 14 -165q-76 0 -169 37t-117 37q-90 -4 -90 -94z" />
<glyph unicode="&#x2022;" horiz-adv-x="641" d="M104 682q0 -92 66 -162q70 -66 161 -65.5t161 65.5q65 70 65 162t-65 162q-70 66 -161 65.5t-161 -65.5q-66 -70 -66 -162z" />
<glyph unicode="&#x2026;" horiz-adv-x="2048" d="M205 100q0 -53 38 -91t91 -38t91 38t38 91t-38 91.5t-91 37.5q-53 0 -91 -38t-38 -91zM891 100q0 -53 38 -91t91 -38t91 38t38 91t-38 91.5t-91 37.5q-53 0 -91 -38t-38 -91zM1577 100q0 -53 38 -91t91 -38t91 38t38 91t-38 91.5t-91 37.5q-53 0 -91 -38t-38 -91z" />
<glyph unicode="&#x2030;" horiz-adv-x="2048" d="M14 891q0 -98 51.5 -158.5t133.5 -60.5q160 0 280.5 151.5t120.5 356.5q0 25 -2 34q62 -20 141 -20q139 0 240 94l-797 -1325h105l876 1483h-92q-162 -199 -321 -199h-17q-116 0 -160 41q-10 15 -28 39q-55 61 -135 62q-123 0 -259 -166t-137 -332zM158 827 q0 156 105 325t149 169q45 -49 129 -86q8 -23 8 -70q0 -156 -107 -295q-104 -141 -204 -141q-39 0 -59.5 25t-20.5 73zM713 180q0 -98 51 -158t133 -61q162 0 283 152q118 153 118 358q0 86 -55 147.5t-133 61.5q-125 0 -261 -166t-136 -334zM856 117q0 156 107.5 328.5 t173.5 172.5q110 0 110 -158.5t-104.5 -300t-206.5 -141.5q-78 0 -80 99zM1450 180q0 -98 51 -158t133 -61q162 0 283 152q119 153 119 358q0 86 -55.5 147.5t-133.5 61.5q-125 0 -261 -166t-136 -334zM1593 117q0 156 107.5 328.5t173.5 172.5q111 0 111 -158.5 t-104.5 -300t-207.5 -141.5q-78 0 -80 99z" />
<glyph unicode="&#x2039;" horiz-adv-x="681" d="M160 407q0 -7 14 -16q45 -39 86 -74.5t80 -70.5t77 -73l79 -79q8 -4 12 -4l8 2q4 4 4 11t-4 20q-51 107 -150 227q-28 33 -55 60q53 53 113 133q57 82 92 153q4 16 4 21q0 12 -14 12q-2 0 -10 -4l-80 -80q-39 -39 -78 -73.5t-79 -70.5t-85 -73q-14 -14 -14 -21z" />
<glyph unicode="&#x203a;" horiz-adv-x="681" d="M160 100q0 -7 9 -8.5t17 2.5q100 100 148.5 143.5t88.5 80t87 73.5q14 15 14 19t-14 18q-155 125 -219 190.5t-105 106.5q-8 4 -12 4q-14 0 -14 -16q0 -4 4 -17q52 -109 154 -227q28 -33 55 -59q-56 -56 -115 -135t-94 -152q-4 -16 -4 -23z" />
<glyph unicode="&#x20ac;" horiz-adv-x="1366" d="M2 510h123q41 -182 174 -328q190 -213 442 -213q205 0 349 115l84 -96h45v418h-60q-59 -225 -166 -306q-109 -80 -229 -80q-356 0 -356 478v12h628l17 111h-645v159h667l19 111h-686q2 213 85 335t259 122q121 0 233.5 -75t155.5 -290h59v395h-47l-80 -86 q-127 107 -313 107q-270 0 -463 -213q-117 -129 -164 -295h-74l-18 -111h72q-7 -57 -7 -131q0 -14 3 -28h-91z" />
<glyph unicode="&#x2122;" horiz-adv-x="1761" d="M66 1149h36q6 88 52.5 140t117.5 52h56v-630h-121v-27h377v27h-121v630h53q74 0 119 -52t51 -140h37v219h-657v-219zM817 684h252v27h-108v622l223 -649h39l229 649v-622h-117v-27h363v27h-111v630h111v27h-281l-160 -469l-155 469h-285v-27h109v-630h-109v-27z" />
<glyph unicode="&#xe000;" horiz-adv-x="1075" d="M0 0v1075h1075v-1075h-1075z" />
<glyph unicode="&#xe001;" horiz-adv-x="2048" />
</font>
</defs>
</svg>
